<svg xmlns="http://www.w3.org/2000/svg" viewBox="0 0 1024 1024">
    <rect x="40" y="40" width="944" height="944" rx="212" fill="#000" />
    <g fill="#fff" stroke="#000" stroke-width="18" stroke-linejoin="round" transform="translate(512 512) scale(1.14) translate(-513 -509)">
        <polygon points="512,160 628,372 540,470" />
        <polygon points="512,160 540,470 440,330" />
        <polygon points="440,330 540,470 392,420" />
        <polygon points="392,420 350,250 440,330" />
        <polygon points="628,372 708,560 540,470" />
        <polygon points="540,470 708,560 604,646" />
        <polygon points="540,470 604,646 500,664" />
        <polygon points="540,470 500,664 392,420" />
        <polygon points="392,420 500,664 318,590" />
        <polygon points="708,560 642,780 604,646" />
        <polygon points="604,646 642,780 500,664" />
        <polygon points="500,664 642,780 512,858" />
        <polygon points="500,664 512,858 378,786" />
        <polygon points="500,664 378,786 318,590" />
    </g>
</svg>
